<svg xmlns="http://www.w3.org/2000/svg" viewBox="0 0 983.21777 487.03936">
    <defs>
        <style>.cls-1{fill:#ccc;}.cls-2{fill:#f15a24;}.cls-3{fill:#00ffff;}.cls-4{fill:#333;}</style>
    </defs>
    <g id="Ebene_2" data-name="Ebene 2">
        <g id="Ebene_3" data-name="Ebene 3">
            <path class="cls-1" d="M60.06885,266.34277H85.19727V445.44482H60.06885Zm12.564,155.20557H175.11768v23.89648H72.63281Z" transform="translate(-5 -148.1046)" />
            <path class="cls-1" d="M227.3457,395.311q0,13.42749,6.83643,20.75537,6.83643,7.3308,19.27783,7.32959,12.31568,0,19.09277-6.52881,6.77271-6.52734,6.77491-18.6001l1.72412,26.73a36.81317,36.81317,0,0,1-12.81055,15.89014q-8.8689,6.40649-21.80273,6.40527-21.1875,0-32.70362-13.61133Q202.21534,420.072,202.21729,395.311V317.585H227.3457ZM279.32764,317.585H304.333V445.44482H279.32764Z" transform="translate(-5 -148.1046)" />
            <path class="cls-1" d="M359.08594,441.56445a38.4614,38.4614,0,0,1-15.08936-17.79931q-5.17383-11.70045-5.17383-28.08448v-28.208q0-16.50513,5.0503-28.208a38.25521,38.25521,0,0,1,14.72021-17.79932q9.668-6.09741,23.21924-6.09765a38.28307,38.28307,0,0,1,20.75537,5.91259,43.60479,43.60479,0,0,1,15.21289,16.6294l-2.58691,26.11377a30.29011,30.29011,0,0,0-2.95655-13.91895,20.181,20.181,0,0,0-8.56054-8.80761,28.38542,28.38542,0,0,0-13.61133-3.01758q-12.44312,0-19.27783,7.76025-6.83643,7.76-6.83643,21.80274v27.83837q0,13.92116,6.83643,21.49463,6.83641,7.57545,19.27783,7.57569a27.46594,27.46594,0,0,0,13.61133-3.14112,20.76117,20.76117,0,0,0,8.56054-9.05371,31.36286,31.36286,0,0,0,2.95655-14.16552l1.72461,26.97607a36.38622,36.38622,0,0,1-12.50293,15.89014q-8.68432,6.40356-21.37158,6.40527Q369.002,447.66211,359.08594,441.56445Zm56.10791-175.22168h25.12842V445.44482H415.19385Z" transform="translate(-5 -148.1046)" />
            <path class="cls-1" d="M467.42139,317.585h26.2373l22.66455,91.27588L548.22656,317.585h17.49121l31.90332,91.27588,22.665-91.27588h26.23731l-39.417,127.85986H588.13672l-31.16406-88.31933-31.16407,88.31933h-18.9707Z" transform="translate(-5 -148.1046)" />
            <path class="cls-1" d="M673.62305,266.34277H698.751v25.12842H673.62305Zm0,51.24219H698.751V445.44482H673.62305Z" transform="translate(-5 -148.1046)" />
            <path class="cls-1" d="M753.50488,441.56445A38.46512,38.46512,0,0,1,738.415,423.76514q-5.17383-11.70045-5.17285-28.08448v-28.208q0-16.50513,5.0498-28.208a38.25714,38.25714,0,0,1,14.71973-17.79932q9.66944-6.09741,23.21973-6.09765a38.28586,38.28586,0,0,1,20.75585,5.91259,43.60253,43.60253,0,0,1,15.21192,16.6294l-2.58692,26.11377a30.29653,30.29653,0,0,0-2.95605-13.91895,20.181,20.181,0,0,0-8.56055-8.80761,28.3867,28.3867,0,0,0-13.61132-3.01758q-12.44385,0-19.27735,7.76025-6.83643,7.76-6.83691,21.80274v27.83837q0,13.92116,6.83691,21.49463,6.83643,7.57545,19.27735,7.57569a27.46717,27.46717,0,0,0,13.61132-3.14112,20.76119,20.76119,0,0,0,8.56055-9.05371,31.36955,31.36955,0,0,0,2.95605-14.16552l1.72461,26.97607A36.38388,36.38388,0,0,1,798.835,441.25684q-8.68506,6.40356-21.37207,6.40527Q763.4209,447.66211,753.50488,441.56445Zm.49219,50.50342a41.45627,41.45627,0,0,1-17.67578-15.08935l16.999-15.39747A35.16452,35.16452,0,0,0,765.084,472.05127a29.75665,29.75665,0,0,0,14.34961,3.6958q14.4126,0,22.2959-7.94531,7.88086-7.94532,7.88281-22.48V317.585h25.12891v124.0415q0,17.61328-6.4668,30.17872A43.74743,43.74743,0,0,1,809.48926,490.898q-12.31788,6.52734-29.68555,6.52832A59.9285,59.9285,0,0,1,753.99707,492.06787Z" transform="translate(-5 -148.1046)" />
            <path class="cls-1" d="M138.28369,442.11475h25.12842V621.2168H138.28369Zm12.564,155.20556H253.33252V621.2168H150.84766Z" transform="translate(-5 -148.1046)" />
            <path class="cls-1" d="M302.48145,616.41309a44.45424,44.45424,0,0,1-19.1543-19.52442q-6.59106-12.87012-6.59033-31.10254V551.374q0-18.96679,6.34375-32.3955a45.36521,45.36521,0,0,1,18.41552-20.44776q12.07032-7.02173,29.06983-7.02148,16.01146,0,27.3457,8.00683,11.332,8.009,17.30664,23.15772,5.97363,15.15087,5.97461,36.33789v8.376H294.96729V547.18652H357.2959q-1.10889-15.6416-8.06836-24.32812-6.96021-8.68359-18.66162-8.68457-14.29029,0-22.11035,9.3623-7.82373,9.36181-7.82178,26.4834V566.2793q0,15.88915,8.376,24.38867,8.37523,8.50049,23.77343,8.5a39.65066,39.65066,0,0,0,15.15137-3.08008,43.69132,43.69132,0,0,0,13.42627-8.62207l16.50586,16.50586a69.57266,69.57266,0,0,1-21.31006,14.10449,60.72362,60.72362,0,0,1-23.77344,4.98828Q315.04542,623.06445,302.48145,616.41309Z" transform="translate(-5 -148.1046)" />
            <path class="cls-1" d="M415.68262,442.11475H440.811V621.2168H415.68262Zm77.603,101.62255q0-13.54833-7.02148-20.94042-7.021-7.39014-19.7085-7.39063-12.3186,0-19.03125,6.40527-6.71484,6.40577-6.71337,18.10743l-2.58643-24.63575a45.5238,45.5238,0,0,1,15.459-17.55322,37.88973,37.88973,0,0,1,21.125-6.2207q20.81544,0,32.21094,13.61181,11.39355,13.61133,11.39453,38.49317V621.2168H493.28564Z" transform="translate(-5 -148.1046)" />
            <path class="cls-1" d="M556.59961,493.35693h25.12793V621.2168H556.59961Zm77.60254,50.38037q0-13.54833-7.02149-20.94042-7.021-7.39014-19.708-7.39063-12.31934,0-19.03125,6.52832-6.71631,6.53028-6.71387,18.35352l-2.58691-24.63575a45.63833,45.63833,0,0,1,15.459-17.86084,37.616,37.616,0,0,1,21.126-6.28222q20.814,0,32.21093,13.61181,11.3921,13.61133,11.39356,38.49317V621.2168H634.20215Z" transform="translate(-5 -148.1046)" />
            <path class="cls-1" d="M719.56543,616.41309a44.45424,44.45424,0,0,1-19.1543-19.52442q-6.59179-12.87012-6.58984-31.10254V551.374q0-18.96679,6.34375-32.3955a45.36693,45.36693,0,0,1,18.415-20.44776q12.0703-7.02173,29.07031-7.02148,16.01074,0,27.3457,8.00683,11.33057,8.009,17.30664,23.15772,5.97217,15.15087,5.97364,36.33789v8.376H712.05176V547.18652h62.32812q-1.10887-15.6416-8.06836-24.32812-6.96093-8.68359-18.66113-8.68457-14.291,0-22.11133,9.3623-7.82373,9.36181-7.82129,26.4834V566.2793q0,15.88915,8.376,24.38867,8.37451,8.50049,23.77344,8.5a39.64877,39.64877,0,0,0,15.15136-3.08008,43.68332,43.68332,0,0,0,13.42579-8.62207l16.50683,16.50586a69.58647,69.58647,0,0,1-21.31054,14.10449,60.7201,60.7201,0,0,1-23.77344,4.98828Q732.12939,623.06445,719.56543,616.41309Z" transform="translate(-5 -148.1046)" />
            <path class="cls-1" d="M832.7666,493.35693h25.12793V621.2168H832.7666ZM894.72559,517.5a30.38486,30.38486,0,0,0-11.70215-2.09375q-11.9502,0-18.53906,6.58984-6.59034,6.59181-6.58985,18.292l-2.58691-24.63575A46.96655,46.96655,0,0,1,870.582,497.853a36.09311,36.09311,0,0,1,20.69434-6.34375,46.92765,46.92765,0,0,1,15.82812,2.52539,35.44416,35.44416,0,0,1,12.37989,7.45263l-16.38282,22.17188A21.05776,21.05776,0,0,0,894.72559,517.5Z" transform="translate(-5 -148.1046)" />
            <path class="cls-1" d="M930.57031,493.35693h57.64746v22.66455H930.57031Zm20.38574,119.91455q-7.20556-8.55908-7.20605-25.31347V456.15723h25.12891V588.20508q0,4.68164,1.84765,7.20605a6.28985,6.28985,0,0,0,5.41992,2.52442h12.07129V621.833H973.68262Q958.1626,621.833,950.95605,613.27148Z" transform="translate(-5 -148.1046)" />
        </g>
        <path class="cls-2" d="M16.7968,148.1046,117.91224,349.49285l473.55729,95.217,283.96586-42.13143s39.60354-37.91829,37.91829-38.76092,0-90.16126,0-90.16126L781.061,245.0069l-101.95807,29.492s-128.07955,23.5936-133.13532,25.27886-167.6831-7.58366-170.211-8.42629S262.00174,259.33158,256.946,256.8037s-102.80069-91.0039-102.80069-91.0039Z" transform="translate(-5 -148.1046)" />
        <polyline class="cls-3" points="154.201 356.432 285.651 182.85 519.059 296.605 709.493 230.88 851.055 428.898 466.816 487.039 0 400.249 154.201 356.432" />
    </g>
    <g id="Ebene_1" data-name="Ebene 1">
        <path class="cls-4" d="M38.71143,241.9873H63.83984V421.08936H38.71143Zm12.564,155.20557H153.76025v23.89649H51.27539Z" transform="translate(-5 -148.1046)" />
        <path class="cls-4" d="M205.98828,370.95557q0,13.42749,6.83643,20.75537,6.83641,7.3308,19.27783,7.32959,12.31568,0,19.09277-6.52881,6.77271-6.52734,6.7749-18.6001l1.72413,26.73a36.81312,36.81312,0,0,1-12.81055,15.89014q-8.8689,6.40648-21.80274,6.40527-21.1875,0-32.70361-13.61133-11.51953-13.60913-11.51758-38.37011V293.22949h25.12842Zm51.98193-77.72608h25.00538V421.08936H257.97021Z" transform="translate(-5 -148.1046)" />
        <path class="cls-4" d="M337.72852,417.209a38.4614,38.4614,0,0,1-15.08936-17.79931q-5.17383-11.70044-5.17383-28.08447v-28.208q0-16.50513,5.0503-28.208a38.25521,38.25521,0,0,1,14.72021-17.79932q9.668-6.09741,23.21924-6.09765a38.28307,38.28307,0,0,1,20.75537,5.91259,43.60479,43.60479,0,0,1,15.21289,16.6294L393.83643,339.668a30.29024,30.29024,0,0,0-2.95655-13.919,20.181,20.181,0,0,0-8.56054-8.80761,28.38553,28.38553,0,0,0-13.61133-3.01758q-12.44311,0-19.27783,7.76025-6.83643,7.76-6.83643,21.80274V371.3252q0,13.92114,6.83643,21.49462,6.83642,7.57545,19.27783,7.57569a27.46594,27.46594,0,0,0,13.61133-3.14112,20.76117,20.76117,0,0,0,8.56054-9.05371,31.363,31.363,0,0,0,2.95655-14.16552l1.72461,26.97607a36.38622,36.38622,0,0,1-12.50293,15.89014q-8.68434,6.40356-21.37159,6.40527Q347.64454,423.30664,337.72852,417.209ZM393.83643,241.9873h25.12841V421.08936H393.83643Z" transform="translate(-5 -148.1046)" />
        <path class="cls-4" d="M446.064,293.22949h26.23731l22.66455,91.27588,31.90332-91.27588h17.49219l31.90234,91.27588,22.665-91.27588H625.166L585.749,421.08936H566.7793L535.61523,332.77l-31.16406,88.31934H485.481Z" transform="translate(-5 -148.1046)" />
        <path class="cls-4" d="M652.26563,241.9873h25.12792v25.12842H652.26563Zm0,51.24219h25.12792V421.08936H652.26563Z" transform="translate(-5 -148.1046)" />
        <path class="cls-4" d="M732.14746,417.209a38.46512,38.46512,0,0,1-15.08984-17.79931q-5.17383-11.70044-5.17285-28.08447v-28.208q0-16.50513,5.0498-28.208a38.25714,38.25714,0,0,1,14.71973-17.79932q9.66943-6.09741,23.21972-6.09765a38.28589,38.28589,0,0,1,20.75586,5.91259,43.60253,43.60253,0,0,1,15.21192,16.6294L788.25488,339.668a30.29653,30.29653,0,0,0-2.95605-13.919,20.181,20.181,0,0,0-8.56055-8.80761,28.38683,28.38683,0,0,0-13.61133-3.01758q-12.44385,0-19.27734,7.76025-6.83643,7.76-6.83691,21.80274V371.3252q0,13.92114,6.83691,21.49462,6.83643,7.57545,19.27734,7.57569a27.46719,27.46719,0,0,0,13.61133-3.14112,20.76119,20.76119,0,0,0,8.56055-9.05371,31.36955,31.36955,0,0,0,2.95605-14.16552l1.72461,26.97607a36.384,36.384,0,0,1-12.502,15.89014q-8.68506,6.40356-21.37207,6.40527Q742.06348,423.30664,732.14746,417.209Zm.49219,50.50342a41.45607,41.45607,0,0,1-17.67578-15.08935l16.999-15.39746a35.1645,35.1645,0,0,0,11.76367,10.47021,29.75665,29.75665,0,0,0,14.34961,3.6958q14.4126,0,22.2959-7.94531,7.88086-7.94532,7.88281-22.48V293.22949h25.12891V417.271q0,17.61327-6.4668,30.17871a43.74748,43.74748,0,0,1-18.78515,19.09277q-12.31788,6.52734-29.68555,6.52832A59.9285,59.9285,0,0,1,732.63965,467.7124Z" transform="translate(-5 -148.1046)" />
        <path class="cls-4" d="M116.92627,417.76025h25.12842V596.8623H116.92627Zm12.564,155.20557H231.9751V596.8623H129.49023Z" transform="translate(-5 -148.1046)" />
        <path class="cls-4" d="M281.124,592.05859a44.45425,44.45425,0,0,1-19.15429-19.52441q-6.59108-12.87012-6.59034-31.10254V527.01953q0-18.9668,6.34375-32.396a45.369,45.369,0,0,1,18.41553-20.44727q12.07032-7.02173,29.06983-7.02148,16.01146,0,27.3457,8.00683,11.332,8.00831,17.30664,23.15772,5.97363,15.15087,5.97461,36.33789v8.376H273.60986V522.832h62.32862q-1.10889-15.64159-8.06836-24.32812-6.96021-8.68433-18.66162-8.68409-14.29029,0-22.11036,9.36182-7.82373,9.36181-7.82177,26.4834V541.9248q0,15.88917,8.376,24.38868,8.37525,8.50048,23.77344,8.5a39.65069,39.65069,0,0,0,15.15137-3.08008,43.69144,43.69144,0,0,0,13.42627-8.62207l16.50586,16.50586a69.57266,69.57266,0,0,1-21.31006,14.10449A60.72362,60.72362,0,0,1,311.42578,598.71Q293.688,598.71,281.124,592.05859Z" transform="translate(-5 -148.1046)" />
        <path class="cls-4" d="M394.3252,417.76025h25.12841V596.8623H394.3252Zm77.603,101.62256q0-13.54833-7.02148-20.94043-7.021-7.39086-19.7085-7.39062-12.3186,0-19.03125,6.40527-6.71484,6.40577-6.71338,18.10742l-2.58642-24.63623a45.5221,45.5221,0,0,1,15.459-17.55273,37.8897,37.8897,0,0,1,21.125-6.2207q20.81544,0,32.21143,13.61132,11.39208,13.61206,11.394,38.49366V596.8623H471.92822Z" transform="translate(-5 -148.1046)" />
        <path class="cls-4" d="M535.24219,469.00244h25.12793V596.8623H535.24219Zm77.60254,50.38037q0-13.54833-7.02149-20.94043-7.021-7.39086-19.708-7.39062-12.31934,0-19.03125,6.52832-6.7163,6.53026-6.71386,18.35351l-2.58692-24.63574a45.63843,45.63843,0,0,1,15.459-17.86084,37.61593,37.61593,0,0,1,21.126-6.28222q20.814,0,32.21094,13.61132,11.39209,13.61206,11.39356,38.49366V596.8623H612.84473Z" transform="translate(-5 -148.1046)" />
        <path class="cls-4" d="M698.208,592.05859a44.45422,44.45422,0,0,1-19.1543-19.52441q-6.5918-12.87012-6.58984-31.10254V527.01953q0-18.9668,6.34375-32.396a45.37066,45.37066,0,0,1,18.415-20.44727q12.07031-7.02173,29.07031-7.02148,16.01075,0,27.3457,8.00683,11.33056,8.00831,17.30664,23.15772,5.97217,15.15087,5.97364,36.33789v8.376H690.69434V522.832h62.32812q-1.10889-15.64159-8.06836-24.32812-6.96093-8.68433-18.66113-8.68409-14.291,0-22.11133,9.36182-7.82373,9.36181-7.82129,26.4834V541.9248q0,15.88917,8.376,24.38868,8.37452,8.50048,23.77344,8.5a39.64877,39.64877,0,0,0,15.15136-3.08008,43.68315,43.68315,0,0,0,13.42578-8.62207l16.50684,16.50586a69.58652,69.58652,0,0,1-21.31055,14.10449A60.72,60.72,0,0,1,728.50977,598.71Q710.772,598.71,698.208,592.05859Z" transform="translate(-5 -148.1046)" />
        <path class="cls-4" d="M811.40918,469.00244h25.12793V596.8623H811.40918Zm61.959,24.14307a30.38477,30.38477,0,0,0-11.70214-2.09375q-11.9502,0-18.53907,6.58984-6.59033,6.5918-6.58984,18.292l-2.58691-24.63574a46.95908,46.95908,0,0,1,15.27441-17.79931,36.09306,36.09306,0,0,1,20.69434-6.34375,46.92773,46.92773,0,0,1,15.82812,2.52539,35.45008,35.45008,0,0,1,12.37988,7.45214l-16.38281,22.17237A21.05772,21.05772,0,0,0,873.36816,493.14551Z" transform="translate(-5 -148.1046)" />
        <path class="cls-4" d="M909.21289,469.00244h57.64746v22.665H909.21289ZM929.59863,588.917q-7.20556-8.55908-7.20605-25.31347V431.80273h25.1289V563.85059q0,4.68163,1.84766,7.20605a6.28986,6.28986,0,0,0,5.41992,2.52441h12.07129v23.89747H952.3252Q936.80518,597.47852,929.59863,588.917Z" transform="translate(-5 -148.1046)" />
        <rect class="cls-4" x="388.4518" y="94.37441" width="26.12149" height="354.74666" />
    </g>
</svg>
